# xmcd
# Copyright (C) 1995-1998 Ti Kan
#
# Track frame offsets:
#       150
#       17847
#       35145
#       51192
#       69000
#       97625
#       115875
#       133175
#       151500
#       169972
#       185132
#       205937
#
# Disc length: 3210 seconds
#
# Revision: 0
# Processed by: cddbd v1.4PL0 Copyright (c) Steve Scherf et al.
# Submitted via: CD-Transfer v1.0
#
DISCID=9d0c880c
DTITLE=Gigi Moto - Superstar
DYEAR=2000
DGENRE=
TTITLE0=Supterstar
TTITLE1=I Ain't Gonna Cry
TTITLE2=Blue Rose
TTITLE3=Everything You Say
TTITLE4=Geto Out
TTITLE5=Stay Another Day
TTITLE6=Fucked Up World Of Love
TTITLE7=In Circles
TTITLE8=Be Like No Other
TTITLE9=Delirious
TTITLE10=Stay Away
TTITLE11=Ripples
EXTD=
EXTT0=
EXTT1=
EXTT2=
EXTT3=
EXTT4=
EXTT5=
EXTT6=
EXTT7=
EXTT8=
EXTT9=
EXTT10=
EXTT11=
PLAYORDER=
